<svg width="16" height="16" viewBox="0 0 16 16" fill="none" xmlns="http://www.w3.org/2000/svg">
<path d="M4.17527 5.87897C4.5666 5.20117 5.13773 4.6448 5.82553 4.27135C6.51334 3.89791 7.29102 3.72194 8.07259 3.7629C8.85416 3.80386 9.60919 4.06015 10.2542 4.50345C10.8992 4.94675 11.409 5.55977 11.7274 6.27476M3.19922 4.56094L3.58615 6.23698C3.65205 6.52245 3.93689 6.70043 4.22235 6.63453L5.8984 6.2476M11.5257 10.1227C11.1344 10.8005 10.5633 11.3568 9.87546 11.7303C9.18766 12.1037 8.40998 12.2797 7.62841 12.2388C6.84683 12.1978 6.09181 11.9415 5.44681 11.4982C4.80181 11.0549 4.29196 10.4419 3.97363 9.72689M12.5018 11.4407L12.1148 9.76467C12.0489 9.4792 11.7641 9.30121 11.4786 9.36712L9.8026 9.75405" stroke="#717171" stroke-linecap="round"/>
</svg>
